<svg id="图层_1" data-name="图层 1" xmlns="http://www.w3.org/2000/svg" viewBox="0 0 164.47 181.43"><defs><style>.cls-1{fill:#3a8fb7;}</style></defs><path class="cls-1" d="M100.53,187.34A43.92,43.92,0,0,1,79.1,181.8l-60-33.44L17.64,54.24,98.42,5.92l82.24,45.8,1.45,94.12-59,35.27a44.2,44.2,0,0,1-22.63,6.23ZM26.84,143.73,82.91,175a36.28,36.28,0,0,0,36.25-.57l55.08-32.94-1.31-85.1L98.57,14.94l-73,43.69Z" transform="translate(-17.64 -5.92)"/><path class="cls-1" d="M126.6,146.39a4,4,0,0,1-3.36-1.9,3.89,3.89,0,0,1,1.35-5.35L146.5,126l-.82-53.38L97.07,45.57a3.91,3.91,0,0,1,3.81-6.82l50.57,28.16a4,4,0,0,1,2,3.36l.9,57.89a4,4,0,0,1-1.9,3.42l-23.85,14.26A4,4,0,0,1,126.6,146.39Z" transform="translate(-17.64 -5.92)"/><path class="cls-1" d="M74.47,147.19a3.92,3.92,0,0,1-1.89-.49L48.3,133.18a3.92,3.92,0,0,1-2-3.36l-.9-57.89a3.92,3.92,0,0,1,1.9-3.41L97,38.81a3.9,3.9,0,0,1,4,6.7L53.24,74.08l.82,53.38,22.31,12.4a3.92,3.92,0,0,1,1.5,5.32A3.87,3.87,0,0,1,74.47,147.19Z" transform="translate(-17.64 -5.92)"/></svg>